<?xml version="1.0" encoding="iso-8859-1"?>
<!-- Generator: Adobe Illustrator 19.0.0, SVG Export Plug-In . SVG Version: 6.00 Build 0)  -->
<svg version="1.1" id="Layer_1" xmlns="http://www.w3.org/2000/svg" xmlns:xlink="http://www.w3.org/1999/xlink" x="0px" y="0px"
	 viewBox="0 0 512.001 512.001" style="enable-background:new 0 0 512.001 512.001;" xml:space="preserve">
<g>
	<g>
		<g>
			<path d="M96.429,446.467h-0.914c-6.032,0-10.922,4.89-10.922,10.922c0,6.032,4.89,10.922,10.922,10.922h0.913
				c6.032,0,10.922-4.89,10.922-10.922C107.35,451.357,102.461,446.467,96.429,446.467z"/>
			<path d="M143.941,457.389c0,6.032,4.89,10.922,10.922,10.922h261.622c6.032,0,10.922-4.89,10.922-10.922
				c0-6.032-4.89-10.922-10.922-10.922H154.863C148.831,446.467,143.941,451.358,143.941,457.389z"/>
			<path d="M354.107,335.826c31.734-27.514,51.838-68.106,51.838-113.306v-72.577C405.945,67.264,338.68,0,256.001,0
				S106.057,67.264,106.057,149.944v72.577c0,45.199,20.103,85.792,51.838,113.306C85.619,356.021,32.441,422.448,32.441,501.079
				c0,6.032,4.89,10.922,10.922,10.922h425.275c6.032,0,10.922-4.89,10.922-10.922C479.56,422.447,426.382,356.02,354.107,335.826z
				 M127.901,222.52v-72.577c0-70.634,57.465-128.099,128.1-128.099s128.1,57.465,128.1,128.1v72.577
				c0,70.635-57.465,128.1-128.1,128.1C185.366,350.62,127.901,293.155,127.901,222.52z M54.679,490.156
				c5.084-70.174,58.748-127.092,127.433-137.201c21.821,12.41,47.041,19.509,73.889,19.509c26.848,0,52.066-7.099,73.888-19.509
				c68.685,10.109,122.349,67.027,127.433,137.201H54.679z"/>
			<path d="M299.474,228.985c2.16,2.526,5.224,3.825,8.306,3.824c2.51,0,5.034-0.862,7.093-2.62l53.625-45.847
				c2.427-2.075,3.824-5.108,3.824-8.302s-1.397-6.227-3.824-8.302l-53.625-45.846c-4.586-3.92-11.48-3.38-15.399,1.204
				c-3.92,4.585-3.382,11.479,1.204,15.399l43.915,37.545l-43.915,37.545C296.093,217.505,295.554,224.401,299.474,228.985z"/>
			<path d="M204.221,232.81c3.082,0,6.147-1.298,8.306-3.824c3.92-4.585,3.381-11.479-1.204-15.399l-43.915-37.545l43.915-37.545
				c4.585-3.92,5.124-10.814,1.204-15.399c-3.92-4.585-10.814-5.126-15.399-1.204l-53.625,45.846
				c-2.427,2.075-3.824,5.108-3.824,8.302c0,3.194,1.397,6.227,3.824,8.302l53.625,45.847
				C199.187,231.949,201.71,232.81,204.221,232.81z"/>
			<path d="M232.463,248.347c1.123,0.366,2.262,0.54,3.383,0.54c4.602,0,8.882-2.932,10.384-7.545l40.313-123.843
				c1.867-5.735-1.269-11.9-7.005-13.766c-5.736-1.87-11.9,1.269-13.766,7.005l-40.313,123.843
				C223.591,240.317,226.728,246.481,232.463,248.347z"/>
		</g>
	</g>
</g>
<g>
</g>
<g>
</g>
<g>
</g>
<g>
</g>
<g>
</g>
<g>
</g>
<g>
</g>
<g>
</g>
<g>
</g>
<g>
</g>
<g>
</g>
<g>
</g>
<g>
</g>
<g>
</g>
<g>
</g>
</svg>
