<?xml version="1.0" standalone="no"?>
<!DOCTYPE svg PUBLIC "-//W3C//DTD SVG 20010904//EN" "http://www.w3.org/TR/2001/REC-SVG-20010904/DTD/svg10.dtd">
<svg
  version="1.0"
  xmlns="http://www.w3.org/2000/svg"
  width="45.000000pt"
  height="185.000000pt"
  viewBox="0 0 45.000000 185.000000"
  preserveAspectRatio="xMidYMid meet"
>
  <g
    transform="translate(0.000000,185.000000) scale(0.100000,-0.100000)"
    fill="#000000"
    stroke="none"
  >
    <path
      d="M381 1839 c-116 -15 -192 -66 -244 -163 -21 -39 -22 -57 -27 -309 -5
-251 -6 -270 -24 -283 -11 -8 -32 -14 -48 -14 l-28 0 0 -145 0 -145 29 0 c33
0 59 -21 66 -53 3 -12 6 -132 7 -267 l3 -245 31 -55 c61 -108 143 -146 337
-157 l117 -6 0 146 0 147 -83 0 c-129 0 -121 -18 -127 282 -5 236 -7 256 -28
303 l-23 51 23 49 c21 47 23 67 28 302 3 138 7 253 10 256 21 19 59 27 124 27
l76 0 0 145 0 145 -77 -1 c-43 -1 -107 -5 -142 -10z m149 -139 l0 -80 -50 0
c-62 0 -114 -20 -132 -52 -9 -17 -14 -90 -18 -268 l-5 -246 -33 -67 -33 -67
20 -26 c42 -54 51 -113 51 -353 0 -161 4 -233 13 -251 17 -35 73 -60 135 -60
l52 0 0 -81 0 -81 -88 4 c-71 3 -100 10 -145 32 -112 54 -127 102 -127 408 0
261 -5 287 -64 315 l-36 17 0 83 c0 72 2 83 18 83 9 0 24 6 33 13 40 31 44 54
49 322 5 247 6 262 28 307 41 82 132 127 260 128 l72 0 0 -80z"
    />
  </g>
</svg>
