<?xml version="1.0" standalone="no"?>
<!DOCTYPE svg PUBLIC "-//W3C//DTD SVG 20010904//EN" "http://www.w3.org/TR/2001/REC-SVG-20010904/DTD/svg10.dtd">
<svg
  version="1.0"
  xmlns="http://www.w3.org/2000/svg"
  width="45.000000pt"
  height="185.000000pt"
  viewBox="0 0 45.000000 185.000000"
  preserveAspectRatio="xMidYMid meet"
>
  <g
    transform="translate(0.000000,185.000000) scale(0.100000,-0.100000)"
    fill="#000000"
    stroke="none"
  >
    <path
      d="M0 1707 l0 -147 76 0 c65 0 103 -8 124 -27 3 -3 7 -118 10 -256 5
-235 7 -255 28 -302 l23 -49 -23 -51 c-21 -47 -23 -67 -28 -303 -6 -300 2
-282 -127 -282 l-83 0 0 -147 0 -146 118 6 c193 11 275 49 336 157 l31 55 3
245 c1 135 4 255 7 267 7 32 33 53 66 53 l29 0 0 145 0 145 -28 0 c-16 0 -37
6 -48 14 -18 13 -19 32 -24 283 l-5 268 -31 55 c-61 108 -143 146 -336 157
l-118 6 0 -146z m303 39 c112 -54 127 -102 127 -408 0 -181 3 -236 15 -265 17
-40 41 -62 68 -63 15 0 17 -11 17 -83 l0 -83 -36 -17 c-59 -28 -64 -54 -64
-315 0 -306 -15 -354 -127 -408 -45 -22 -74 -29 -145 -32 l-88 -4 0 81 0 81
53 0 c61 0 117 25 134 60 9 18 13 90 13 251 0 240 9 299 51 353 l20 26 -33 67
-33 67 -5 246 c-4 178 -9 251 -18 268 -18 32 -70 52 -132 52 l-50 0 0 81 0 81
88 -4 c71 -3 100 -10 145 -32z"
    />
  </g>
</svg>
