<?xml version="1.0" standalone="no"?>
<!DOCTYPE svg PUBLIC "-//W3C//DTD SVG 20010904//EN"
 "http://www.w3.org/TR/2001/REC-SVG-20010904/DTD/svg10.dtd">
<svg version="1.0" xmlns="http://www.w3.org/2000/svg"
 width="397.000000pt" height="232.000000pt" viewBox="0 0 397.000000 232.000000"
 preserveAspectRatio="xMidYMid meet">

<g transform="translate(0.000000,232.000000) scale(0.100000,-0.100000)"
fill="#000000" stroke="none">
<path d="M129 2299 c-44 -22 -86 -69 -111 -126 -18 -40 -18 -85 -16 -1020 l3
-978 24 -40 c33 -57 45 -69 101 -99 98 -53 220 -30 296 57 62 71 64 85 64 477
l0 350 329 0 330 0 4 -357 c3 -274 7 -367 18 -395 8 -21 17 -38 21 -38 5 0 8
-6 8 -14 0 -19 63 -73 108 -92 85 -36 206 -10 268 57 59 64 64 86 64 269 0
185 -5 200 -67 200 -55 0 -63 -21 -63 -173 0 -152 -11 -191 -60 -221 -41 -24
-75 -20 -112 13 l-33 29 -5 409 c-3 224 -9 415 -13 425 -5 9 -18 19 -30 22
-36 10 -844 7 -870 -3 -43 -16 -48 -67 -47 -477 1 -400 4 -380 -50 -417 -49
-34 -118 -10 -138 47 -16 44 -17 1879 -1 1924 23 66 113 85 162 34 l27 -28 1
-380 c0 -262 4 -391 12 -419 19 -62 55 -75 201 -75 176 0 228 23 210 95 -11
43 -31 50 -153 55 l-116 5 -5 360 c-3 198 -9 369 -14 380 -4 11 -14 34 -22 52
-13 29 -60 72 -111 101 -35 19 -170 14 -214 -9z"/>
<path d="M1294 2305 c-50 -22 -107 -95 -126 -162 -16 -51 -18 -104 -18 -396
l0 -337 -132 0 c-159 0 -182 -10 -176 -76 5 -62 39 -74 219 -74 154 0 208 11
225 47 5 10 11 202 14 426 l5 409 30 24 c40 32 104 33 131 2 44 -50 44 -48 44
-753 0 -662 0 -675 20 -695 25 -25 60 -26 88 -1 l22 18 0 707 c0 699 0 707
-21 749 -23 45 -66 89 -113 112 -37 19 -169 19 -212 0z"/>
<path d="M2072 2295 c-46 -26 -81 -62 -82 -82 0 -7 -4 -13 -9 -13 -23 0 -31
-102 -31 -383 0 -283 1 -295 21 -321 25 -31 57 -33 87 -6 22 20 22 26 22 298
0 300 7 349 51 383 15 11 41 19 67 19 35 0 49 -6 73 -29 16 -16 29 -33 29 -38
0 -4 11 -20 25 -35 14 -15 25 -30 25 -34 0 -4 15 -25 33 -48 18 -23 73 -97
122 -166 48 -69 92 -126 97 -128 4 -2 8 -8 8 -13 0 -12 80 -123 92 -127 4 -2
8 -10 8 -18 0 -8 4 -14 9 -14 5 0 12 -8 15 -18 4 -10 14 -27 24 -38 10 -10 46
-59 82 -109 72 -102 85 -114 121 -115 34 0 75 48 238 280 68 96 127 177 130
180 4 3 15 18 25 35 11 16 23 34 28 40 36 45 67 88 153 210 117 167 136 185
191 185 32 0 47 -7 72 -31 l32 -31 0 -958 0 -958 -31 -31 c-50 -50 -89 -52
-141 -7 l-28 23 0 683 c0 630 -1 684 -17 711 -10 17 -28 32 -41 36 -46 11 -58
-2 -244 -264 -27 -37 -48 -74 -48 -84 0 -30 39 -69 70 -69 28 0 47 17 110 101
l25 32 5 -589 c6 -648 1 -603 71 -675 49 -50 99 -72 164 -72 89 0 175 53 223
137 16 29 17 99 20 1009 2 977 2 977 -19 1024 -23 50 -74 104 -122 128 -47 24
-173 20 -217 -6 -45 -27 -90 -69 -90 -85 0 -7 -4 -14 -9 -16 -4 -1 -37 -43
-72 -93 -35 -49 -74 -101 -86 -115 -13 -14 -23 -30 -23 -37 0 -6 -4 -13 -9
-15 -4 -1 -52 -64 -105 -138 -208 -290 -242 -335 -259 -338 -9 -2 -17 1 -17 7
0 5 -6 16 -13 23 -7 7 -57 76 -112 153 -54 77 -107 149 -117 159 -10 11 -18
23 -18 26 0 4 -11 20 -25 36 -14 16 -25 32 -25 36 0 4 -6 13 -13 20 -7 7 -42
54 -77 103 -196 274 -221 295 -349 295 -62 0 -84 -5 -119 -25z"/>
<path d="M2322 1607 l-22 -23 0 -676 c0 -626 -1 -679 -17 -707 -17 -30 -66
-61 -95 -61 -25 0 -78 40 -91 68 -9 19 -13 161 -17 514 -3 267 -8 489 -11 493
-4 3 -22 8 -42 12 -27 4 -39 1 -56 -16 l-22 -22 3 -507 3 -507 32 -51 c52 -80
117 -117 206 -117 29 1 72 9 98 21 51 22 119 95 119 127 0 11 6 27 13 33 9 10
13 143 15 579 3 534 4 565 20 542 9 -13 22 -31 29 -39 7 -8 77 -105 155 -214
125 -174 149 -203 193 -227 41 -23 63 -28 121 -28 46 -1 83 5 105 15 37 18
139 120 139 140 0 7 4 14 8 16 4 2 20 19 35 39 71 94 -14 194 -89 105 -52 -60
-64 -76 -64 -84 0 -15 -78 -87 -101 -93 -37 -9 -92 8 -114 34 -45 55 -54 67
-72 94 -10 15 -26 37 -35 47 -10 11 -18 23 -18 27 0 4 -6 14 -13 21 -7 7 -57
76 -112 153 -54 77 -105 146 -112 153 -7 7 -13 17 -13 21 0 4 -8 16 -18 27
-10 10 -26 33 -36 50 -19 32 -63 64 -88 64 -8 0 -24 -10 -36 -23z"/>
</g>
</svg>
