<?xml version="1.0" standalone="no"?>
<!DOCTYPE svg PUBLIC "-//W3C//DTD SVG 20010904//EN"
 "http://www.w3.org/TR/2001/REC-SVG-20010904/DTD/svg10.dtd">
<svg version="1.0" xmlns="http://www.w3.org/2000/svg"
 width="256.000000pt" height="256.000000pt" viewBox="0 0 256.000000 256.000000"
 preserveAspectRatio="xMidYMid meet">

<g transform="translate(0.000000,256.000000) scale(0.100000,-0.100000)"
fill="#dd0031" stroke="none">
<path d="M690 2349 c-322 -116 -588 -213 -591 -217 -4 -4 33 -351 82 -772 49
-421 89 -773 89 -782 0 -11 153 -101 506 -297 l505 -280 497 276 c273 151 500
278 504 281 6 6 190 1574 185 1578 -4 3 -1188 424 -1190 423 -1 0 -265 -95
-587 -210z m955 -891 c198 -446 363 -820 367 -830 7 -17 -1 -18 -131 -18
l-139 0 -74 185 -73 185 -316 0 -316 0 -73 -184 -73 -185 -139 -3 c-76 -2
-138 -1 -138 2 -1 10 735 1660 740 1660 3 0 167 -365 365 -812z"/>
<path d="M1172 1473 c-56 -137 -102 -251 -102 -255 0 -5 95 -8 210 -8 116 0
210 3 210 8 0 13 -204 502 -210 502 -3 0 -51 -111 -108 -247z"/>
</g>
</svg>
